<svg width="36" height="40" viewBox="0 0 36 40" fill="none" xmlns="http://www.w3.org/2000/svg">
<path d="M17.0527 0.184326C17.5849 -0.0615813 18.1993 -0.0614375 18.7314 0.184326L32.9473 6.75562C33.2384 6.89022 33.4705 7.07167 33.6494 7.28003C34.9973 8.17568 35.8867 9.70736 35.8867 11.447V34.031L35.8809 34.2878C35.7512 36.8442 33.7008 38.8942 31.1445 39.0242L30.8867 39.031H5L4.74316 39.0242C2.18659 38.8946 0.136499 36.8444 0.00683594 34.2878L0 34.031V11.447C8.62829e-07 9.8054 0.790884 8.34787 2.0127 7.43628C2.20256 7.16099 2.47493 6.92306 2.83691 6.75562L17.0527 0.184326ZM32.6484 10.5027C32.4809 10.5462 32.3 10.571 32.1074 10.571H3.67578L3.47949 10.5632C3.392 10.5556 3.30739 10.5405 3.22559 10.5232C3.11139 10.7423 3.03683 10.9856 3.01074 11.2429L3 11.447V34.031C3.00032 35.1351 3.89585 36.0307 5 36.031H15.0732V29.5789C15.0734 29.0267 15.521 28.5789 16.0732 28.5789H19.0977L19.1992 28.5837C19.7036 28.6348 20.0975 29.0611 20.0977 29.5789V36.031H30.8867C31.9909 36.0308 32.8864 35.1352 32.8867 34.031V11.447C32.8867 11.1053 32.7995 10.784 32.6484 10.5027ZM17.0732 35.7869H18.0977V30.5789H17.0732V35.7869ZM10.5859 28.5837C11.0902 28.6349 11.4843 29.0611 11.4844 29.5789V32.5369L11.4785 32.6394C11.4307 33.1101 11.0566 33.4842 10.5859 33.532L10.4844 33.5369H7.45996C6.90768 33.5369 6.45996 33.0891 6.45996 32.5369V29.5789C6.46009 29.0267 6.90776 28.5789 7.45996 28.5789H10.4844L10.5859 28.5837ZM27.8105 28.5837C28.3149 28.6347 28.7089 29.061 28.709 29.5789V32.5369L28.7031 32.6394C28.6553 33.1102 28.2814 33.4844 27.8105 33.532L27.709 33.5369H24.6846C24.1324 33.5367 23.6846 33.089 23.6846 32.5369V29.5789C23.6847 29.0268 24.1325 28.579 24.6846 28.5789H27.709L27.8105 28.5837ZM8.45996 31.5369H9.48438V30.5789H8.45996V31.5369ZM25.6846 31.5369H26.709V30.5789H25.6846V31.5369ZM10.5859 20.7927C11.0902 20.8439 11.4844 21.27 11.4844 21.7878V24.7458L11.4785 24.8484C11.4305 25.3189 11.0565 25.6932 10.5859 25.741L10.4844 25.7458H7.45996C6.90784 25.7458 6.46022 25.2979 6.45996 24.7458V21.7878C6.45996 21.2356 6.90768 20.7878 7.45996 20.7878H10.4844L10.5859 20.7927ZM19.1992 20.7927C19.7036 20.8438 20.0977 21.27 20.0977 21.7878V24.7458L20.0918 24.8484C20.0438 25.319 19.6699 25.6933 19.1992 25.741L19.0977 25.7458H16.0732C15.5211 25.7458 15.0735 25.2979 15.0732 24.7458V21.7878C15.0732 21.2356 15.521 20.7878 16.0732 20.7878H19.0977L19.1992 20.7927ZM27.8105 20.7927C28.315 20.8437 28.709 21.2699 28.709 21.7878V24.7458L28.7031 24.8484C28.6551 25.3189 28.2812 25.6934 27.8105 25.741L27.709 25.7458H24.6846C24.1326 25.7457 23.6848 25.2978 23.6846 24.7458V21.7878C23.6846 21.2357 24.1324 20.788 24.6846 20.7878H27.709L27.8105 20.7927ZM8.45996 23.7458H9.48438V22.7878H8.45996V23.7458ZM17.0732 23.7458H18.0977V22.7878H17.0732V23.7458ZM25.6846 23.7458H26.709V22.7878H25.6846V23.7458ZM10.585 13.0007C11.0894 13.0517 11.4834 13.4779 11.4834 13.9958V16.9539L11.4775 17.0564C11.4295 17.5269 11.0556 17.9014 10.585 17.949L10.4834 17.9539H7.45898C6.90721 17.9534 6.45923 17.5057 6.45898 16.9539V13.9958C6.45898 13.4438 6.90706 12.9963 7.45898 12.9958H10.4834L10.585 13.0007ZM19.1992 13.0007C19.7035 13.0519 20.0977 13.4781 20.0977 13.9958V16.9539L20.0918 17.0564C20.0438 17.5268 19.6697 17.9012 19.1992 17.949L19.0977 17.9539H16.0732C15.5213 17.9536 15.0735 17.5058 15.0732 16.9539V13.9958C15.0732 13.4437 15.5212 12.9961 16.0732 12.9958H19.0977L19.1992 13.0007ZM27.8105 13.0007C28.315 13.0518 28.709 13.4779 28.709 13.9958V16.9539L28.7031 17.0564C28.6551 17.527 28.2812 17.9014 27.8105 17.949L27.709 17.9539H24.6846C24.1327 17.9536 23.6848 17.5058 23.6846 16.9539V13.9958C23.6846 13.4437 24.1325 12.9961 24.6846 12.9958H27.709L27.8105 13.0007ZM8.45898 15.9539H9.4834V14.9958H8.45898V15.9539ZM17.0732 15.9539H18.0977V14.9958H17.0732V15.9539ZM25.6846 15.9539H26.709V14.9958H25.6846V15.9539ZM10.6553 6.44702H25.1289L17.8916 3.10132L10.6553 6.44702Z" fill="#5A3724"/>
</svg>
