<svg width="42" height="45" viewBox="0 0 42 45" fill="none" xmlns="http://www.w3.org/2000/svg">
<path d="M26.4835 11.6873C28.2547 11.2009 29.928 12.7264 29.6068 14.5349L27.2035 28.0683C26.8592 30.0071 24.5132 30.8051 23.0581 29.4785L12.2065 19.5851C10.7518 18.2584 11.3301 15.849 13.2285 15.3273L26.4835 11.6873Z" fill="#5A3724" stroke="#5A3724"/>
<path d="M14.7063 15.0763C21.8121 15.0763 27.5725 20.8367 27.5725 27.9425C27.5725 35.0483 21.8121 40.8087 14.7063 40.8087C11.1194 40.8087 7.87661 39.3395 5.54321 36.9718L15.9534 27.6779C16.9832 26.7583 17.0731 25.1775 16.1536 24.1476C15.234 23.1177 13.6532 23.0288 12.6233 23.9484L2.76782 32.7472C2.16979 31.2626 1.84009 29.6411 1.84009 27.9425C1.84009 20.8367 7.6005 15.0763 14.7063 15.0763Z" fill="#5A3724"/>
<line x1="1.99993" y1="41.6135" x2="18.2109" y2="27.1394" stroke="#5A3724" stroke-width="4" stroke-linecap="round"/>
</svg>
