<svg width="42" height="40" viewBox="0 0 42 40" fill="none" xmlns="http://www.w3.org/2000/svg">
<path fill-rule="evenodd" clip-rule="evenodd" d="M25.2649 0C25.8172 0 26.2711 0.449573 26.2063 0.998047C26.1301 1.64374 25.9795 2.26819 25.763 2.85156C27.3756 3.40691 28.8736 4.20282 30.2132 5.19629H36.4495C37.0018 5.19629 37.4557 5.64586 37.3909 6.19434C37.2311 7.54747 36.7489 8.80868 36.0042 9.78906C35.7012 10.1878 35.3623 10.5285 34.9983 10.8076C35.8603 12.4726 36.4397 14.3034 36.6741 16.2393H40.3968C40.949 16.2393 41.4028 16.688 41.3382 17.2363C41.1784 18.5896 40.6963 19.8516 39.9515 20.832C39.0262 22.0498 37.7716 22.7342 36.4632 22.7344C36.3557 22.7344 36.2484 22.7279 36.1419 22.7188C35.8055 23.8639 35.3452 24.9568 34.7757 25.9824H35.7913C36.3434 25.9824 36.7972 26.4312 36.7327 26.9795C36.5729 28.3327 36.0908 29.5948 35.346 30.5752C34.4207 31.7931 33.1662 32.4774 31.8577 32.4775C31.024 32.4775 30.2122 32.1991 29.4934 31.6826C28.5325 32.3189 27.5003 32.858 26.4104 33.2852L27.7425 37.623H31.5032C32.0555 37.6231 32.5032 38.0708 32.5032 38.623C32.5031 39.1752 32.0554 39.623 31.5032 39.623H10.8167C10.2646 39.6229 9.81681 39.1751 9.81668 38.623C9.81668 38.0709 10.2646 37.6232 10.8167 37.623H14.7845L15.8079 33.8008C14.1469 33.3313 12.5936 32.6104 11.1927 31.6826C10.4741 32.1987 9.66366 32.4775 8.83036 32.4775C7.52166 32.4775 6.26648 31.7933 5.3411 30.5752C4.59632 29.5948 4.11418 28.3327 3.95438 26.9795C3.88994 26.4313 4.34371 25.9825 4.89579 25.9824H5.91239C5.34243 24.9561 4.88068 23.8628 4.54422 22.7168C3.35907 22.6097 2.23821 21.9448 1.39286 20.832C0.648052 19.8516 0.165937 18.5896 0.00613686 17.2363C-0.058432 16.688 0.395434 16.2394 0.947543 16.2393H4.01395C4.26678 14.1517 4.91995 12.1858 5.89676 10.4189C5.70121 10.2286 5.51516 10.0182 5.3411 9.78906C4.59644 8.80869 4.11417 7.5474 3.95438 6.19434C3.88962 5.64589 4.34354 5.19634 4.89579 5.19629H10.4749C12.3019 3.84128 14.4238 2.85318 16.7288 2.34277C16.6017 1.91014 16.5089 1.45952 16.4544 0.998047C16.3896 0.449683 16.8437 0.000180505 17.3958 0H25.2649ZM24.5071 33.9004C23.1774 34.2428 21.7824 34.4268 20.344 34.4268C19.4662 34.4268 18.6046 34.3573 17.7639 34.2266L16.8548 37.623H25.6507L24.5071 33.9004ZM18.3997 31.8564C19.0352 31.9438 19.6842 31.9902 20.344 31.9902C21.5338 31.9902 22.6885 31.8425 23.7913 31.5664L20.9554 22.3262L18.3997 31.8564ZM13.6468 26.5508C13.7007 26.681 13.7244 26.8261 13.7063 26.9795C13.5851 28.0059 13.2768 28.9791 12.8108 29.8174C13.9228 30.5209 15.1424 31.0726 16.4397 31.4443L19.2298 21.0381L13.6468 26.5508ZM25.6917 30.9434C26.456 30.6307 27.1864 30.254 27.8753 29.8184C27.4092 28.9801 27.1029 28.0059 26.9817 26.9795C26.9495 26.7056 27.0459 26.4562 27.22 26.2754L22.9729 22.083L25.6917 30.9434ZM23.1888 19.4863L29.7688 25.9824H31.8831C32.7675 24.7088 33.4404 23.2813 33.8538 21.749C33.5379 21.4898 33.2414 21.1841 32.9739 20.832C32.6663 20.4271 32.4035 19.9738 32.1897 19.4863H23.1888ZM9.15457 19.4863C8.94079 19.9738 8.67895 20.4271 8.37137 20.832C7.95459 21.3806 7.46992 21.8194 6.94461 22.1377C7.36301 23.5231 7.99575 24.8171 8.80497 25.9824H11.3763L17.9563 19.4863H9.15457ZM20.6722 18.1875C20.1273 18.1877 19.6858 18.6241 19.6858 19.1621C19.686 19.7 20.1273 20.1365 20.6722 20.1367C21.2171 20.1367 21.6593 19.7001 21.6595 19.1621C21.6595 18.624 21.2172 18.1875 20.6722 18.1875ZM22.8294 17.4863H31.6204C31.6081 17.4035 31.5971 17.3199 31.5872 17.2363C31.5226 16.688 31.9764 16.2393 32.5286 16.2393H34.1848C33.9521 14.6129 33.4327 13.0781 32.678 11.6855C32.6238 11.6879 32.5693 11.6924 32.5149 11.6924C31.539 11.6923 30.5931 11.3111 29.7913 10.6123L22.8294 17.4863ZM11.4446 10.7021C10.6664 11.3426 9.76283 11.6924 8.83036 11.6924C8.56691 11.6924 8.30595 11.6626 8.04911 11.6084C7.27195 13.021 6.73921 14.5833 6.50223 16.2393H8.81668C9.36883 16.2393 9.82267 16.688 9.75809 17.2363C9.74821 17.32 9.73624 17.4034 9.72391 17.4863H18.3167L11.4446 10.7021ZM17.8489 4.60254C16.3758 4.86452 14.9832 5.35577 13.7093 6.03516C13.7126 6.08702 13.7127 6.1402 13.7063 6.19434C13.5786 7.27562 13.2435 8.29747 12.7347 9.16504L20.0139 16.3516V6.25781C19.2032 5.96212 18.4554 5.39758 17.8489 4.60254ZM24.4798 4.99805C23.7736 5.76933 22.9198 6.26483 22.0139 6.43164V15.4795L28.5374 9.03906C28.1051 8.26358 27.8086 7.37209 27.6702 6.42969C26.6815 5.82794 25.6115 5.34357 24.4798 4.99805Z" fill="#5A3724"/>
</svg>
