<svg width="38" height="52" viewBox="0 0 38 52" fill="none" xmlns="http://www.w3.org/2000/svg">
<mask id="path-1-inside-1_392_17" fill="white">
<path d="M1.29883 12.041C5.09506 2.31228 16.0592 -2.49722 25.7881 1.29883C35.5169 5.095 40.3263 16.0592 36.5303 25.7881C35.3184 28.8939 33.3749 31.4971 30.9753 33.4803C30.7909 33.6327 30.6312 33.813 30.5079 34.018L20.623 50.4557C19.8459 51.748 17.9724 51.7481 17.1952 50.4558L7.30271 34.0077C7.18001 33.8037 7.02083 33.6238 6.83759 33.4718C0.736209 28.4116 -1.74041 19.8303 1.29883 12.041Z"/>
</mask>
<path d="M1.29883 12.041L-3.35912 10.2234L-3.35915 10.2235L1.29883 12.041ZM25.7881 1.29883L27.6056 -3.35913L27.6056 -3.35915L25.7881 1.29883ZM36.5303 25.7881L41.1883 27.6056L41.1883 27.6055L36.5303 25.7881ZM7.30271 34.0077L11.5875 31.4307L7.30271 34.0077ZM6.83759 33.4718L3.6457 37.3204L6.83759 33.4718ZM30.9753 33.4803L34.1605 37.3344L30.9753 33.4803ZM30.5079 34.018L34.7928 36.5947L30.5079 34.018ZM1.29883 12.041L5.95677 13.8586C8.74922 6.70228 16.8143 3.16453 23.9706 5.95681L25.7881 1.29883L27.6056 -3.35915C15.3042 -8.15896 1.4409 -2.07772 -3.35912 10.2234L1.29883 12.041ZM25.7881 1.29883L23.9706 5.95679C31.1268 8.74916 34.6646 16.8142 31.8723 23.9706L36.5303 25.7881L41.1883 27.6055C45.988 15.3042 39.9069 1.44084 27.6056 -3.35913L25.7881 1.29883ZM36.5303 25.7881L31.8723 23.9706C30.9784 26.2615 29.5516 28.1704 27.7901 29.6261L30.9753 33.4803L34.1605 37.3344C37.1982 34.8239 39.6584 31.5264 41.1883 27.6056L36.5303 25.7881ZM30.5079 34.018L26.223 31.4412L16.3381 47.8789L20.623 50.4557L24.9079 53.0324L34.7928 36.5947L30.5079 34.018ZM17.1952 50.4558L21.4799 47.8788L11.5875 31.4307L7.30271 34.0077L3.01796 36.5847L12.9104 53.0328L17.1952 50.4558ZM6.83759 33.4718L10.0295 29.6232C5.53708 25.8974 3.72393 19.5811 5.95681 13.8585L1.29883 12.041L-3.35915 10.2235C-7.20475 20.0794 -4.06466 30.9258 3.6457 37.3204L6.83759 33.4718ZM7.30271 34.0077L11.5875 31.4307C11.1497 30.7027 10.607 30.1022 10.0295 29.6232L6.83759 33.4718L3.6457 37.3204C3.43466 37.1454 3.21038 36.9046 3.01796 36.5847L7.30271 34.0077ZM20.623 50.4557L16.3381 47.8789C17.5039 45.9404 20.3141 45.9403 21.4799 47.8788L17.1952 50.4558L12.9104 53.0328C15.6308 57.5559 22.1878 57.5557 24.9079 53.0324L20.623 50.4557ZM30.9753 33.4803L27.7901 29.6261C27.2075 30.1076 26.6623 30.7108 26.223 31.4412L30.5079 34.018L34.7928 36.5947C34.6001 36.9152 34.3744 37.1577 34.1605 37.3344L30.9753 33.4803Z" fill="#372416" mask="url(#path-1-inside-1_392_17)"/>
<circle cx="19" cy="20.0001" r="4.5" fill="#372416" stroke="#372416"/>
</svg>
