<svg width="48" height="52" viewBox="0 0 48 52" fill="none" xmlns="http://www.w3.org/2000/svg">
<g filter="url(#filter0_d_398_50)">
<mask id="path-1-inside-1_398_50" fill="white">
<path d="M6.39687 33.2793C3.96566 34.3106 1.17992 33.0714 0.820133 30.4833C0.486792 28.0854 0.457427 25.6312 0.739003 23.1929C1.20861 19.1264 2.52979 15.22 4.59451 11.7929C6.65924 8.3659 9.40888 5.5156 12.6186 3.47508C14.3544 2.37164 16.198 1.52194 18.1032 0.941151C20.768 0.128835 23.1194 2.31191 23.1895 5.07825V5.07825C23.2584 7.80057 21.0443 10.042 18.5486 11.1902C17.9782 11.4525 17.4212 11.756 16.8811 12.0994C14.904 13.3563 13.2103 15.1119 11.9385 17.2229C10.6667 19.3338 9.8529 21.74 9.56364 24.2449C9.43611 25.3492 9.41213 26.4588 9.49 27.5561C9.65659 29.9036 8.58363 32.3517 6.39687 33.2793V33.2793Z"/>
</mask>
<path d="M6.39687 33.2793C3.96566 34.3106 1.17992 33.0714 0.820133 30.4833C0.486792 28.0854 0.457427 25.6312 0.739003 23.1929C1.20861 19.1264 2.52979 15.22 4.59451 11.7929C6.65924 8.3659 9.40888 5.5156 12.6186 3.47508C14.3544 2.37164 16.198 1.52194 18.1032 0.941151C20.768 0.128835 23.1194 2.31191 23.1895 5.07825V5.07825C23.2584 7.80057 21.0443 10.042 18.5486 11.1902C17.9782 11.4525 17.4212 11.756 16.8811 12.0994C14.904 13.3563 13.2103 15.1119 11.9385 17.2229C10.6667 19.3338 9.8529 21.74 9.56364 24.2449C9.43611 25.3492 9.41213 26.4588 9.49 27.5561C9.65659 29.9036 8.58363 32.3517 6.39687 33.2793V33.2793Z" stroke="#5A3724" stroke-width="6" mask="url(#path-1-inside-1_398_50)"/>
<path d="M22.2928 4.98137L36.0186 27.5045C37.237 29.5039 35.7441 32.1061 33.381 32.102L4.56073 32.0512" stroke="#5A3724" stroke-width="3" stroke-linecap="round"/>
<path d="M24.239 14.4228C24.2117 15.7508 23.183 16.8274 21.9413 16.8274C20.6997 16.8274 19.7153 15.7508 19.7426 14.4228C19.77 13.0948 20.7987 12.0182 22.0403 12.0182C23.2819 12.0182 24.2663 13.0948 24.239 14.4228ZM20.6419 14.4228C20.6255 15.2196 21.2162 15.8655 21.9611 15.8655C22.7061 15.8655 23.3233 15.2196 23.3397 14.4228C23.3561 13.626 22.7655 12.98 22.0205 12.98C21.2755 12.98 20.6583 13.626 20.6419 14.4228Z" fill="#5A3724"/>
<path d="M27.5393 28.8489C27.512 30.1769 26.4833 31.2535 25.2416 31.2535C24 31.2535 23.0156 30.1769 23.0429 28.8489C23.0703 27.5209 24.0989 26.4443 25.3406 26.4443C26.5822 26.4443 27.5666 27.5209 27.5393 28.8489ZM23.9422 28.8489C23.9258 29.6457 24.5164 30.2917 25.2614 30.2917C26.0064 30.2917 26.6236 29.6457 26.64 28.8489C26.6564 28.0521 26.0658 27.4062 25.3208 27.4062C24.5758 27.4062 23.9586 28.0521 23.9422 28.8489Z" fill="#5A3724"/>
<path d="M32.2138 20.1934C32.1865 21.5214 31.1578 22.598 29.9162 22.598C28.6746 22.598 27.6902 21.5214 27.7175 20.1934C27.7448 18.8654 28.7735 17.7888 30.0151 17.7888C31.2568 17.7888 32.2412 18.8654 32.2138 20.1934ZM28.6168 20.1934C28.6004 20.9902 29.191 21.6362 29.936 21.6362C30.681 21.6362 31.2982 20.9902 31.3146 20.1934C31.331 19.3966 30.7403 18.7507 29.9954 18.7507C29.2504 18.7507 28.6332 19.3966 28.6168 20.1934Z" fill="#5A3724"/>
<path d="M15.0881 22.1165C15.0608 23.4445 14.0321 24.5211 12.7905 24.5211C11.5488 24.5211 10.5644 23.4445 10.5918 22.1165C10.6191 20.7885 11.6478 19.7119 12.8894 19.7119C14.131 19.7119 15.1154 20.7885 15.0881 22.1165ZM11.491 22.1165C11.4746 22.9133 12.0653 23.5593 12.8103 23.5593C13.5552 23.5593 14.1724 22.9133 14.1888 22.1165C14.2052 21.3197 13.6146 20.6737 12.8696 20.6737C12.1246 20.6737 11.5074 21.3197 11.491 22.1165Z" fill="#5A3724"/>
<path d="M22.2624 23.078C22.2351 24.4061 21.2064 25.4826 19.9648 25.4826C18.7232 25.4826 17.7388 24.4061 17.7661 23.078C17.7934 21.75 18.8221 20.6735 20.0637 20.6735C21.3054 20.6735 22.2897 21.75 22.2624 23.078ZM18.6654 23.078C18.649 23.8749 19.2396 24.5208 19.9846 24.5208C20.7295 24.5208 21.3468 23.8749 21.3632 23.078C21.3795 22.2812 20.7889 21.6353 20.0439 21.6353C19.299 21.6353 18.6817 22.2812 18.6654 23.078Z" fill="#5A3724"/>
<line x1="1" y1="-1" x2="1.63378" y2="-1" transform="matrix(0.667897 0.730337 -0.697947 0.730337 29.4071 25.4821)" stroke="#5A3724" stroke-width="2" stroke-linecap="round"/>
<line x1="1" y1="-1" x2="2.32938" y2="-1" transform="matrix(0.97801 -0.229541 0.181777 0.979194 13.1451 29.1327)" stroke="#5A3724" stroke-width="2" stroke-linecap="round"/>
<line x1="1" y1="-1" x2="1.2699" y2="-1" transform="matrix(0.963713 -0.287372 0.233808 0.967077 16.0829 17.479)" stroke="#5A3724" stroke-width="2" stroke-linecap="round"/>
<line x1="1" y1="-1" x2="1.31633" y2="-1" transform="matrix(0.789462 -0.629982 0.561729 0.815505 24.12 20.2092)" stroke="#5A3724" stroke-width="2" stroke-linecap="round"/>
</g>
<defs>
<filter id="filter0_d_398_50" x="0.546998" y="0.769409" width="47.4087" height="42.8729" filterUnits="userSpaceOnUse" color-interpolation-filters="sRGB">
<feFlood flood-opacity="0" result="BackgroundImageFix"/>
<feColorMatrix in="SourceAlpha" type="matrix" values="0 0 0 0 0 0 0 0 0 0 0 0 0 0 0 0 0 0 127 0" result="hardAlpha"/>
<feOffset dx="5" dy="5"/>
<feGaussianBlur stdDeviation="2.5"/>
<feComposite in2="hardAlpha" operator="out"/>
<feColorMatrix type="matrix" values="0 0 0 0 0 0 0 0 0 0 0 0 0 0 0 0 0 0 0.1 0"/>
<feBlend mode="normal" in2="BackgroundImageFix" result="effect1_dropShadow_398_50"/>
<feBlend mode="normal" in="SourceGraphic" in2="effect1_dropShadow_398_50" result="shape"/>
</filter>
</defs>
</svg>
