<svg width="50" height="50" viewBox="0 0 50 50" fill="none" xmlns="http://www.w3.org/2000/svg">
<mask id="path-1-inside-1_391_2" fill="white">
<path d="M50 49.1057C50 49.5996 49.5996 50 49.1057 50C48.9225 50 48.7437 49.9437 48.5935 49.8387L27.3643 35.0018C25.644 33.7995 23.356 33.7995 21.6357 35.0018L0.210279 49.9759C0.187823 49.9916 0.161089 50 0.133693 50C0.0598564 50 0 49.9401 0 49.8663V5C0 2.23858 2.23858 0 5 0H45C47.7614 0 50 2.23858 50 5V49.1057Z"/>
</mask>
<path d="M0.210279 49.9759L-3.79969 44.2383L0.210279 49.9759ZM27.3643 35.0018L23.3543 40.7394L27.3643 35.0018ZM48.5935 49.8387L44.5835 55.5763L48.5935 49.8387ZM48.5935 49.8387L52.6034 44.1011L31.3742 29.2642L27.3643 35.0018L23.3543 40.7394L44.5835 55.5763L48.5935 49.8387ZM21.6357 35.0018L17.6258 29.2642L-3.79969 44.2383L0.210279 49.9759L4.22025 55.7135L25.6457 40.7394L21.6357 35.0018ZM0 49.8663H7V5H0H-7V49.8663H0ZM5 0V7H45V0V-7H5V0ZM50 5H43V49.1057H50H57V5H50ZM45 0V7C43.8954 7 43 6.10457 43 5H50H57C57 -1.62742 51.6274 -7 45 -7V0ZM0 5H7C7 6.10457 6.10457 7 5 7V0V-7C-1.62742 -7 -7 -1.62741 -7 5H0ZM0.133693 50V43C3.92585 43 7 46.0742 7 49.8663H0H-7C-7 53.8061 -3.80614 57 0.133693 57V50ZM0.210279 49.9759L-3.79969 44.2383C-2.64637 43.4322 -1.2733 43 0.133693 43V50V57C1.59547 57 3.02202 56.5509 4.22025 55.7135L0.210279 49.9759ZM27.3643 35.0018L31.3742 29.2642C27.2456 26.3787 21.7544 26.3787 17.6258 29.2642L21.6357 35.0018L25.6457 40.7394C24.9576 41.2203 24.0424 41.2203 23.3543 40.7394L27.3643 35.0018ZM49.1057 50V43C50.3569 43 51.5779 43.3844 52.6034 44.1011L48.5935 49.8387L44.5835 55.5763C45.9094 56.503 47.4881 57 49.1057 57V50ZM49.1057 50V57C53.4656 57 57 53.4656 57 49.1057H50H43C43 45.7336 45.7336 43 49.1057 43V50Z" fill="#372416" mask="url(#path-1-inside-1_391_2)"/>
</svg>
